<svg width="15" height="17" viewBox="0 0 15 17" fill="none" xmlns="http://www.w3.org/2000/svg">
<path d="M12.0962 12.3137C11.3976 13.026 9.9991 14.4519 8.92729 15.5447C8.14322 16.3442 6.85647 16.3439 6.0724 15.5444C5.02001 14.4714 3.64724 13.0717 2.90381 12.3137C0.365398 9.72554 0.365398 5.52929 2.90381 2.94113C5.44221 0.352958 9.55779 0.352958 12.0962 2.94113C14.6346 5.52929 14.6346 9.72554 12.0962 12.3137Z" stroke="#101313" stroke-width="1.5" stroke-linecap="round" stroke-linejoin="round"/>
<path d="M9.9375 7.62742C9.9375 9 8.84619 10.1127 7.5 10.1127C6.15381 10.1127 5.0625 9 5.0625 7.62742C5.0625 6.25483 6.15381 5.14214 7.5 5.14214C8.84619 5.14214 9.9375 6.25483 9.9375 7.62742Z" stroke="#101313" stroke-width="1.5" stroke-linecap="round" stroke-linejoin="round"/>
</svg>
