<svg width="34" height="23" viewBox="0 0 34 23" fill="none" xmlns="http://www.w3.org/2000/svg">
<path d="M6.05263 16.8793L1 21.9993H33V9.565L28.7895 5.90787L21.2105 12.4907L18.6842 10.2964L8.57895 19.0736L6.05263 16.8793Z" fill="#C1CFD5"/>
<path d="M1 21.9917L6.05263 16.8717L8.57895 19.066L18.6842 10.2889L21.2105 12.4831L28.7895 5.9003L33 9.55744" stroke="#101313" stroke-width="1.5"/>
<path d="M18.7388 0.486571C19.1101 0.452763 19.4121 0.754464 19.3217 1.06886L18.2536 4.77877C18.1498 5.13957 17.6213 5.24383 17.3366 4.95965L16.5741 4.19848C16.5635 4.20717 16.5538 4.21724 16.5427 4.22562L7.92615 10.724C7.48501 11.0568 6.81093 11.0103 6.42028 10.6205L6.04134 10.2424C5.65077 9.85248 5.69194 9.26717 6.13304 8.93441L14.7486 2.43498C14.7597 2.42663 14.7715 2.41876 14.7828 2.41088L14.0212 1.65073C13.7368 1.36659 13.9293 0.926682 14.3553 0.887556L18.7388 0.486571Z" fill="#101313"/>
</svg>
