<svg width="26" height="34" viewBox="0 0 26 34" fill="none" xmlns="http://www.w3.org/2000/svg">
<rect width="26" height="34" rx="12" fill="white" fill-opacity="0.4"/>
<path d="M16.6919 8.28165C16.8727 8.46222 16.9742 8.707 16.9742 8.96221C16.9742 9.21743 16.8727 9.4622 16.6919 9.64278L9.32902 16.9877L16.6919 24.3327C16.819 24.4504 16.9119 24.6001 16.9608 24.7661C17.0098 24.9321 17.0129 25.1081 16.97 25.2757C16.927 25.4433 16.8395 25.5963 16.7167 25.7184C16.5939 25.8406 16.4404 25.9275 16.2723 25.9699C16.1045 26.0128 15.9281 26.0098 15.7619 25.9612C15.5956 25.9126 15.4456 25.8203 15.3275 25.6938L7.28234 17.6683C7.10155 17.4877 7 17.2429 7 16.9877C7 16.7325 7.10155 16.4877 7.28234 16.3072L15.3275 8.28165C15.5085 8.1013 15.7538 8 16.0097 8C16.2655 8 16.5109 8.1013 16.6919 8.28165Z" fill="#101313" fill-opacity="0.8"/>
</svg>
